PathFileType	4	(X/Y/Z)	D:\TRACE\spotREDO_2-26-24\spot_Both_Motion_3_10-v60.trc
DataRate	CameraRate	NumFrames	NumMarkers	Units	OrigDataRate	OrigDataStartFrame	OrigNumFrames
100.00	100.00	      31	9	mm	100.00	3501	      7000
Frame#	Time	front left toe			Front right toe			aft left toe			aft right toe			Arm			FL body			FR body			AL Body			AR Body			
		X1	Y1	Z1	X2	Y2	Z2	X3	Y3	Z3	X4	Y4	Z4	X5	Y5	Z5	X6	Y6	Z6	X7	Y7	Z7	X8	Y8	Z8	X9	Y9	Z9	

3501	35.000	-118.60477	94.48023	-462.78030	269.79883	31.03531	-509.98819	-122.14714	16.14358	174.46931	260.68854	19.59559	145.77972	109.07429	728.48328	-779.93835	-23.78176	597.90875	-506.62491	132.14531	604.75580	-513.77393	13.97376	549.26892	375.27429	161.50349	545.22424	370.53174	
3502	35.010	-118.32915	83.75150	-462.35635	269.87399	31.03913	-509.97607	-122.23943	16.07131	174.39377	260.51013	19.66472	145.75775	109.61549	728.44971	-779.90344	-25.74056	598.32312	-507.32727	130.45854	604.80646	-514.19855	12.58428	549.39191	374.93158	159.86427	545.66309	370.32968	
3503	35.020	-118.30269	73.09388	-461.87280	269.88263	30.93029	-509.97461	-122.37598	16.10126	174.36577	260.37082	19.80554	145.69162	110.08854	728.33643	-779.84918	-26.78405	598.00201	-507.41937	129.17308	604.84509	-514.50580	10.47165	549.53064	374.44724	157.75179	545.81995	369.92154	
3504	35.030	-119.37306	62.81652	-462.00046	270.00534	30.92632	-509.96136	-122.55439	15.99039	174.36406	260.12805	19.87925	145.65187	110.21210	728.45135	-780.15411	-28.34644	598.03571	-508.03467	127.60099	605.10040	-514.83160	8.25596	549.49744	374.00665	155.70787	545.87360	369.64487	
3505	35.040	-119.63716	52.73864	-462.40466	270.06842	30.95534	-509.92917	-122.69884	15.89573	174.31067	260.03528	20.07726	145.60017	110.36260	728.54004	-780.45581	-29.72083	598.11829	-508.42255	126.16431	605.25421	-515.33728	6.13611	549.41553	373.51245	153.63963	545.84406	369.18250	
3506	35.050	-119.90980	42.55422	-462.72275	270.05606	30.96859	-509.89728	-122.81661	15.76372	174.23343	259.68658	20.07562	145.53873	110.21550	728.79675	-780.50214	-31.53905	598.21863	-509.29291	124.37457	605.34406	-515.93085	3.73777	549.49872	372.91537	151.08188	545.83386	368.86496	
3507	35.060	-119.96040	32.47810	-463.02045	270.13577	30.97256	-509.86841	-122.90207	15.74651	174.20372	259.49460	20.14741	145.49455	110.14938	728.94244	-780.49554	-33.09836	598.21790	-509.84421	122.71627	605.30927	-516.44196	1.16886	549.34668	372.13907	148.56837	545.76056	368.02539	
3508	35.070	-120.03336	29.48497	-465.48914	270.10590	30.74230	-509.85141	-123.12827	15.69896	174.12709	259.23685	20.18969	145.44325	109.95763	729.17407	-780.48059	-35.00736	598.45221	-510.71466	120.79510	605.52118	-517.13123	-1.57133	549.23157	371.36984	145.99814	545.70282	367.36664	
3509	35.080	-121.63597	29.39702	-464.07034	269.80750	31.31390	-510.38025	-123.23627	15.14424	173.85143	258.98444	20.61700	144.78996	109.57137	729.40295	-780.50171	-37.39211	599.70544	-511.38901	118.54926	606.26648	-517.65625	-3.68589	549.10364	370.52368	143.14503	545.31512	366.50598	
3510	35.090	-121.69170	29.18146	-464.29846	268.49780	32.21266	-510.20184	-124.54519	14.13870	174.16228	258.38599	22.07627	145.30244	109.23096	729.76617	-780.53131	-39.98774	601.37268	-511.92099	116.15498	607.27045	-518.43549	-5.95239	549.26117	369.86902	142.10313	544.88708	366.23587	
3511	35.100	-121.99500	29.30185	-463.99261	268.01712	32.70685	-510.79654	-124.85378	13.94456	174.27763	257.12930	21.84443	144.84106	109.04104	730.14459	-780.21582	-42.16677	602.72400	-512.39832	113.77435	607.85168	-519.06049	-8.10139	549.61877	369.35190	140.09618	544.20172	365.25748	
3512	35.110	-122.04990	29.23302	-464.27863	267.85776	32.73930	-510.47513	-124.63155	14.29148	173.85312	257.09299	21.97495	144.90550	108.90679	730.57544	-780.12433	-44.20003	603.73077	-512.77362	111.56725	608.39825	-519.66565	-10.15423	550.10571	368.72495	136.60585	544.37909	364.67776	
3513	35.120	-122.02047	29.04727	-464.37561	267.91492	32.72063	-510.57300	-124.67004	14.39268	173.75697	257.11234	22.08608	144.76373	109.23271	730.25562	-780.01691	-46.14833	604.65411	-513.56067	109.82713	608.68451	-520.33044	-12.22898	550.74640	368.07642	133.91376	544.60291	363.72763	
3514	35.130	-122.10687	28.61957	-464.38171	267.64542	32.44547	-510.74524	-124.82903	13.93162	173.87662	256.95636	22.01959	144.59314	109.40374	730.00861	-780.15582	-47.79112	605.41077	-514.17419	108.19930	608.91870	-520.52039	-13.48102	551.17108	367.40945	132.52608	544.66107	363.12222	
3515	35.140	-122.07617	28.37351	-464.44049	267.73187	32.89117	-510.56479	-124.91709	13.81027	173.89832	256.91980	22.29568	144.68684	109.95705	729.80353	-780.74237	-49.09652	605.70721	-514.79285	106.57932	609.37848	-521.64203	-15.62489	551.76093	366.85110	131.31635	545.24750	362.49860	
3516	35.150	-122.06771	28.31666	-464.47400	267.57654	32.80633	-510.94055	-124.82178	13.81232	173.71712	256.90088	22.45616	144.62997	110.39598	729.89850	-780.93793	-50.60924	606.11511	-515.67419	104.58726	609.76398	-522.29962	-17.25632	552.09204	366.19174	129.98807	545.29785	361.82410	
3517	35.160	-122.19469	28.31542	-464.52731	267.46436	32.47979	-511.11618	-124.95437	13.81042	173.68716	256.80310	22.69779	144.57637	110.58367	730.02112	-781.03888	-51.49392	606.29944	-516.13379	104.05279	609.94543	-522.79108	-18.83969	552.35077	365.35333	128.59964	545.68994	361.45679	
3518	35.170	-122.21802	28.16276	-464.63602	267.33521	32.98942	-510.97128	-125.10167	13.61636	173.64558	256.68271	22.79203	144.48332	110.36864	730.04193	-781.34558	-52.74470	606.51367	-517.08710	103.19561	610.08905	-523.45941	-20.17465	552.78369	364.77148	127.57523	546.00916	361.55286	
3519	35.180	-122.34697	27.95562	-464.77448	267.37576	32.47105	-511.20248	-125.12299	13.51649	173.42545	256.57880	22.87230	144.38321	109.50342	730.23035	-781.52875	-53.30381	606.43353	-517.47113	102.24702	610.26245	-524.16547	-21.52713	553.08447	364.05869	125.72108	546.24316	360.10052	
3520	35.190	-122.37920	27.73292	-464.95193	267.15607	32.66704	-511.21225	-125.14536	13.39098	173.27496	256.51566	22.99039	144.38264	109.06005	730.51483	-781.94904	-54.20385	606.53802	-518.58942	101.81907	610.43732	-524.78339	-22.79449	553.37274	363.33640	124.37904	546.73010	359.47449	
3521	35.200	-122.40411	27.58270	-465.02283	267.30350	32.52420	-511.25305	-125.19337	13.43695	173.09796	256.40573	23.12491	144.35770	108.08907	730.65851	-782.13757	-54.63115	606.58136	-519.01001	101.18292	610.51093	-525.39008	-23.69196	553.47504	362.75726	123.57592	547.09137	358.94736	
3522	35.210	-122.51283	27.44687	-465.10556	267.02814	32.30033	-511.58279	-125.22711	13.47050	173.04451	256.37604	23.20622	144.30927	107.75019	730.58441	-782.32617	-55.27259	606.56506	-519.75916	100.66512	610.60748	-526.01318	-24.59305	553.68451	361.97879	122.60652	547.32654	358.51379	
3523	35.220	-122.61418	27.22131	-465.22433	267.05017	32.17524	-511.71078	-125.26275	13.53502	172.91086	256.40442	23.28635	144.23628	106.98277	730.66699	-782.51855	-55.90471	606.46429	-520.48560	100.20773	610.67535	-526.68158	-25.36959	553.91089	361.33539	121.85499	547.60016	357.63004	
3524	35.230	-122.67290	26.96043	-465.33313	267.40833	31.87619	-511.66028	-125.34416	13.75800	172.67511	256.43024	23.21849	144.03009	106.38810	730.60400	-782.82764	-56.38021	606.12018	-521.03467	99.41511	610.64819	-527.51471	-25.86493	554.19073	360.70126	121.65585	547.92188	356.94669	
3525	35.240	-122.72340	26.74365	-465.41803	267.40112	31.86350	-511.65552	-125.39495	13.78013	172.53384	256.32117	23.06741	143.76988	105.90720	730.55908	-783.15533	-57.01588	605.90338	-521.80322	99.15513	610.40479	-527.68164	-26.14025	554.30933	359.96161	121.09702	548.31610	356.21649	
3526	35.250	-122.69949	26.60970	-465.41797	267.31165	31.79502	-511.77701	-125.39106	13.90537	172.43747	256.45334	23.07578	143.70639	105.73262	730.39557	-783.33698	-57.59504	605.84430	-522.52655	98.53334	610.30511	-528.87231	-26.28394	554.64087	359.25803	121.14349	548.55688	355.51810	
3527	35.260	-122.73515	26.51135	-465.40656	267.22476	31.73191	-511.84012	-125.38202	14.17291	172.29335	256.47766	23.11251	143.62196	105.79066	730.24878	-783.49463	-57.78475	605.67114	-522.98907	98.21950	610.22729	-529.41956	-26.21183	554.90228	358.85794	121.06502	548.91095	354.90634	
3528	35.270	-122.80522	26.40406	-465.45023	267.10931	31.63722	-512.01978	-125.43731	14.30235	172.15521	256.52411	23.25758	143.41489	105.83958	730.12579	-783.57599	-59.09225	606.09045	-524.67346	98.01886	609.69684	-530.06097	-26.45515	555.22687	358.04465	121.15597	549.54761	354.28769	
3529	35.280	-122.91013	26.27026	-465.50357	267.58838	31.27772	-512.00055	-125.36858	14.22051	172.22107	256.56506	23.38159	143.33611	105.34632	730.11981	-783.34778	-58.23806	604.70264	-524.58734	98.35400	608.76196	-530.70081	-26.50956	556.29681	357.50394	121.00187	550.22522	353.73840	
3530	35.290	-122.93931	26.14015	-465.62286	267.70972	30.91773	-512.02899	-125.35865	14.26518	172.22569	256.51636	23.44413	143.26669	104.77525	730.09503	-782.19434	-58.11618	603.63574	-525.00110	97.30522	607.97461	-531.47449	-26.69584	556.90167	357.08951	120.85542	550.73596	353.41153	
3531	35.300	-122.87367	25.93279	-465.79440	267.67438	30.58453	-512.12164	-125.38924	14.26570	172.12280	256.42749	23.47629	143.14615	103.90231	730.26990	-780.51379	-57.35845	602.84766	-525.82526	98.48428	607.41919	-532.24170	-26.85495	557.48871	356.53223	120.54639	551.29895	352.91953	
